<mxfile host="app.diagrams.net" modified="2023-11-28T17:06:24.282Z" agent="Mozilla/5.0 (Macintosh; Intel Mac OS X 10_15_7) AppleWebKit/537.36 (KHTML, like Gecko) Chrome/116.0.0.0 Safari/537.36" etag="zhy2MpLGSNpcaU1uVXqR" version="22.1.4" type="github">
  <diagram id="C5RBs43oDa-KdzZeNtuy" name="Page-1">
    <mxGraphModel dx="948" dy="552" grid="1" gridSize="10" guides="1" tooltips="1" connect="1" arrows="1" fold="1" page="1" pageScale="1" pageWidth="827" pageHeight="1169" math="0" shadow="0">
      <root>
        <mxCell id="WIyWlLk6GJQsqaUBKTNV-0" />
        <mxCell id="WIyWlLk6GJQsqaUBKTNV-1" parent="WIyWlLk6GJQsqaUBKTNV-0" />
        <mxCell id="lTUS31iEleSx6iwOJdl1-1" value="Begin" style="ellipse;whiteSpace=wrap;html=1;" parent="WIyWlLk6GJQsqaUBKTNV-1" vertex="1">
          <mxGeometry x="120" y="30" width="100" height="40" as="geometry" />
        </mxCell>
        <mxCell id="lTUS31iEleSx6iwOJdl1-19" style="edgeStyle=orthogonalEdgeStyle;rounded=0;orthogonalLoop=1;jettySize=auto;html=1;exitX=0.5;exitY=1;exitDx=0;exitDy=0;entryX=0.5;entryY=0;entryDx=0;entryDy=0;" parent="WIyWlLk6GJQsqaUBKTNV-1" source="lTUS31iEleSx6iwOJdl1-5" target="lTUS31iEleSx6iwOJdl1-7" edge="1">
          <mxGeometry relative="1" as="geometry">
            <Array as="points">
              <mxPoint x="165" y="190" />
            </Array>
          </mxGeometry>
        </mxCell>
        <mxCell id="lTUS31iEleSx6iwOJdl1-5" value="&lt;br&gt;Input Check Year&lt;br&gt;(year)" style="shape=parallelogram;perimeter=parallelogramPerimeter;whiteSpace=wrap;html=1;fixedSize=1;" parent="WIyWlLk6GJQsqaUBKTNV-1" vertex="1">
          <mxGeometry x="90" y="130" width="150" height="60" as="geometry" />
        </mxCell>
        <mxCell id="lTUS31iEleSx6iwOJdl1-7" value="year = Int?" style="rhombus;whiteSpace=wrap;html=1;" parent="WIyWlLk6GJQsqaUBKTNV-1" vertex="1">
          <mxGeometry x="125" y="260" width="80" height="80" as="geometry" />
        </mxCell>
        <mxCell id="lTUS31iEleSx6iwOJdl1-8" value="year % 4&lt;br&gt;== 0" style="rhombus;whiteSpace=wrap;html=1;" parent="WIyWlLk6GJQsqaUBKTNV-1" vertex="1">
          <mxGeometry x="270" y="260" width="80" height="80" as="geometry" />
        </mxCell>
        <mxCell id="lTUS31iEleSx6iwOJdl1-9" value="year % 100&lt;br&gt;== 0" style="rhombus;whiteSpace=wrap;html=1;" parent="WIyWlLk6GJQsqaUBKTNV-1" vertex="1">
          <mxGeometry x="420" y="260" width="80" height="80" as="geometry" />
        </mxCell>
        <mxCell id="lTUS31iEleSx6iwOJdl1-10" value="year % 400&amp;nbsp;&lt;br&gt;== 0" style="rhombus;whiteSpace=wrap;html=1;" parent="WIyWlLk6GJQsqaUBKTNV-1" vertex="1">
          <mxGeometry x="560" y="260" width="80" height="80" as="geometry" />
        </mxCell>
        <mxCell id="lTUS31iEleSx6iwOJdl1-11" value="Leap Year" style="shape=parallelogram;perimeter=parallelogramPerimeter;whiteSpace=wrap;html=1;fixedSize=1;" parent="WIyWlLk6GJQsqaUBKTNV-1" vertex="1">
          <mxGeometry x="400" y="390" width="120" height="60" as="geometry" />
        </mxCell>
        <mxCell id="lTUS31iEleSx6iwOJdl1-26" value="Yes" style="endArrow=classic;html=1;rounded=0;fontStyle=1" parent="WIyWlLk6GJQsqaUBKTNV-1" edge="1">
          <mxGeometry x="-0.1429" y="20" width="50" height="50" relative="1" as="geometry">
            <mxPoint x="350" y="299.5" as="sourcePoint" />
            <mxPoint x="420" y="299.5" as="targetPoint" />
            <Array as="points">
              <mxPoint x="370" y="299.5" />
            </Array>
            <mxPoint y="1" as="offset" />
          </mxGeometry>
        </mxCell>
        <mxCell id="lTUS31iEleSx6iwOJdl1-31" value="Yes" style="endArrow=classic;html=1;rounded=0;exitX=1;exitY=0.5;exitDx=0;exitDy=0;fontStyle=1;align=center;" parent="WIyWlLk6GJQsqaUBKTNV-1" source="lTUS31iEleSx6iwOJdl1-7" edge="1">
          <mxGeometry x="0.0816" y="20" width="50" height="50" relative="1" as="geometry">
            <mxPoint x="210" y="299.5" as="sourcePoint" />
            <mxPoint x="270" y="299.5" as="targetPoint" />
            <mxPoint as="offset" />
          </mxGeometry>
        </mxCell>
        <mxCell id="lTUS31iEleSx6iwOJdl1-35" value="No" style="endArrow=classic;html=1;rounded=0;fontStyle=1" parent="WIyWlLk6GJQsqaUBKTNV-1" edge="1">
          <mxGeometry x="-0.2" y="-20" width="50" height="50" relative="1" as="geometry">
            <mxPoint x="459.5" y="340" as="sourcePoint" />
            <mxPoint x="460" y="390" as="targetPoint" />
            <Array as="points" />
            <mxPoint as="offset" />
          </mxGeometry>
        </mxCell>
        <mxCell id="lTUS31iEleSx6iwOJdl1-39" value="Yes" style="endArrow=classic;html=1;rounded=0;fontStyle=1" parent="WIyWlLk6GJQsqaUBKTNV-1" target="lTUS31iEleSx6iwOJdl1-10" edge="1">
          <mxGeometry y="20" width="50" height="50" relative="1" as="geometry">
            <mxPoint x="500" y="300" as="sourcePoint" />
            <mxPoint x="550" y="250" as="targetPoint" />
            <mxPoint as="offset" />
          </mxGeometry>
        </mxCell>
        <mxCell id="lTUS31iEleSx6iwOJdl1-40" value="Yes" style="endArrow=classic;html=1;rounded=0;entryX=0.95;entryY=0.383;entryDx=0;entryDy=0;entryPerimeter=0;fontStyle=1" parent="WIyWlLk6GJQsqaUBKTNV-1" target="lTUS31iEleSx6iwOJdl1-11" edge="1">
          <mxGeometry x="-0.6226" y="-20" width="50" height="50" relative="1" as="geometry">
            <mxPoint x="600" y="340" as="sourcePoint" />
            <mxPoint x="650" y="290" as="targetPoint" />
            <Array as="points">
              <mxPoint x="600" y="413" />
            </Array>
            <mxPoint as="offset" />
          </mxGeometry>
        </mxCell>
        <mxCell id="lTUS31iEleSx6iwOJdl1-41" value="Print error&lt;br&gt;message" style="shape=parallelogram;perimeter=parallelogramPerimeter;whiteSpace=wrap;html=1;fixedSize=1;" parent="WIyWlLk6GJQsqaUBKTNV-1" vertex="1">
          <mxGeometry x="100" y="400" width="150" height="60" as="geometry" />
        </mxCell>
        <mxCell id="lTUS31iEleSx6iwOJdl1-45" value="No" style="endArrow=classic;html=1;rounded=0;fontStyle=1" parent="WIyWlLk6GJQsqaUBKTNV-1" edge="1">
          <mxGeometry x="-0.3333" y="-14" width="50" height="50" relative="1" as="geometry">
            <mxPoint x="164.5" y="340" as="sourcePoint" />
            <mxPoint x="164.5" y="400" as="targetPoint" />
            <mxPoint as="offset" />
          </mxGeometry>
        </mxCell>
        <mxCell id="lTUS31iEleSx6iwOJdl1-48" value="" style="endArrow=classic;html=1;rounded=0;exitX=0;exitY=0.5;exitDx=0;exitDy=0;entryX=0;entryY=0.5;entryDx=0;entryDy=0;" parent="WIyWlLk6GJQsqaUBKTNV-1" source="lTUS31iEleSx6iwOJdl1-41" target="lTUS31iEleSx6iwOJdl1-5" edge="1">
          <mxGeometry width="50" height="50" relative="1" as="geometry">
            <mxPoint x="90" y="430" as="sourcePoint" />
            <mxPoint x="80" y="160" as="targetPoint" />
            <Array as="points">
              <mxPoint x="30" y="430" />
              <mxPoint x="30" y="160" />
            </Array>
          </mxGeometry>
        </mxCell>
        <mxCell id="lTUS31iEleSx6iwOJdl1-50" value="No" style="endArrow=classic;html=1;rounded=0;fontStyle=1" parent="WIyWlLk6GJQsqaUBKTNV-1" target="lTUS31iEleSx6iwOJdl1-51" edge="1">
          <mxGeometry x="0.482" y="-15" width="50" height="50" relative="1" as="geometry">
            <mxPoint x="640" y="300" as="sourcePoint" />
            <mxPoint x="580" y="550" as="targetPoint" />
            <Array as="points">
              <mxPoint x="720" y="300" />
              <mxPoint x="720" y="555" />
            </Array>
            <mxPoint as="offset" />
          </mxGeometry>
        </mxCell>
        <mxCell id="lTUS31iEleSx6iwOJdl1-51" value="Not Leap Year" style="shape=parallelogram;perimeter=parallelogramPerimeter;whiteSpace=wrap;html=1;fixedSize=1;" parent="WIyWlLk6GJQsqaUBKTNV-1" vertex="1">
          <mxGeometry x="250" y="525" width="120" height="60" as="geometry" />
        </mxCell>
        <mxCell id="lTUS31iEleSx6iwOJdl1-52" value="" style="endArrow=classic;html=1;rounded=0;entryX=1;entryY=0.5;entryDx=0;entryDy=0;" parent="WIyWlLk6GJQsqaUBKTNV-1" edge="1" target="lTUS31iEleSx6iwOJdl1-53">
          <mxGeometry width="50" height="50" relative="1" as="geometry">
            <mxPoint x="260" y="550" as="sourcePoint" />
            <mxPoint x="220" y="550" as="targetPoint" />
          </mxGeometry>
        </mxCell>
        <mxCell id="lTUS31iEleSx6iwOJdl1-53" value="End" style="ellipse;whiteSpace=wrap;html=1;" parent="WIyWlLk6GJQsqaUBKTNV-1" vertex="1">
          <mxGeometry x="115" y="530" width="100" height="40" as="geometry" />
        </mxCell>
        <mxCell id="lTUS31iEleSx6iwOJdl1-57" value="" style="endArrow=classic;html=1;rounded=0;" parent="WIyWlLk6GJQsqaUBKTNV-1" edge="1">
          <mxGeometry width="50" height="50" relative="1" as="geometry">
            <mxPoint x="164.5" y="70" as="sourcePoint" />
            <mxPoint x="164.5" y="130" as="targetPoint" />
          </mxGeometry>
        </mxCell>
        <mxCell id="lTUS31iEleSx6iwOJdl1-59" value="No" style="endArrow=classic;html=1;rounded=0;exitX=0.5;exitY=1;exitDx=0;exitDy=0;entryX=0.5;entryY=0;entryDx=0;entryDy=0;fontStyle=1" parent="WIyWlLk6GJQsqaUBKTNV-1" source="lTUS31iEleSx6iwOJdl1-8" target="lTUS31iEleSx6iwOJdl1-51" edge="1">
          <mxGeometry x="-0.7773" y="-20" width="50" height="50" relative="1" as="geometry">
            <mxPoint x="310" y="400" as="sourcePoint" />
            <mxPoint x="310" y="490" as="targetPoint" />
            <Array as="points">
              <mxPoint x="310" y="490" />
              <mxPoint x="310" y="480" />
            </Array>
            <mxPoint as="offset" />
          </mxGeometry>
        </mxCell>
      </root>
    </mxGraphModel>
  </diagram>
</mxfile>
